<svg aria-roledescription="er" role="graphics-document document" viewBox="0 0 176.6953125 408.5" style="max-width: 176.695px; background-color: white;" xmlns:xlink="http://www.w3.org/1999/xlink" xmlns="http://www.w3.org/2000/svg" width="100%" id="my-svg"><style>#my-svg{font-family:"trebuchet ms",verdana,arial,sans-serif;font-size:16px;fill:#000000;}#my-svg .error-icon{fill:#552222;}#my-svg .error-text{fill:#552222;stroke:#552222;}#my-svg .edge-thickness-normal{stroke-width:2px;}#my-svg .edge-thickness-thick{stroke-width:3.5px;}#my-svg .edge-pattern-solid{stroke-dasharray:0;}#my-svg .edge-pattern-dashed{stroke-dasharray:3;}#my-svg .edge-pattern-dotted{stroke-dasharray:2;}#my-svg .marker{fill:#000000;stroke:#000000;}#my-svg .marker.cross{stroke:#000000;}#my-svg svg{font-family:"trebuchet ms",verdana,arial,sans-serif;font-size:16px;}#my-svg .entityBox{fill:#cde498;stroke:#13540c;}#my-svg .attributeBoxOdd{fill:#ffffff;stroke:#13540c;}#my-svg .attributeBoxEven{fill:#f2f2f2;stroke:#13540c;}#my-svg .relationshipLabelBox{fill:hsl(78.1578947368, 58.4615384615%, 84.5098039216%);opacity:0.7;background-color:hsl(78.1578947368, 58.4615384615%, 84.5098039216%);}#my-svg .relationshipLabelBox rect{opacity:0.5;}#my-svg .relationshipLine{stroke:#000000;}#my-svg .entityTitleText{text-anchor:middle;font-size:18px;fill:#000000;}#my-svg #MD_PARENT_START{fill:#f5f5f5!important;stroke:#000000!important;stroke-width:1;}#my-svg #MD_PARENT_END{fill:#f5f5f5!important;stroke:#000000!important;stroke-width:1;}#my-svg :root{--mermaid-font-family:"trebuchet ms",verdana,arial,sans-serif;}</style><g/><defs><marker orient="auto" markerHeight="240" markerWidth="190" refY="7" refX="0" id="MD_PARENT_START"><path d="M 18,7 L9,13 L1,7 L9,1 Z"/></marker></defs><defs><marker orient="auto" markerHeight="28" markerWidth="20" refY="7" refX="19" id="MD_PARENT_END"><path d="M 18,7 L9,13 L1,7 L9,1 Z"/></marker></defs><defs><marker orient="auto" markerHeight="18" markerWidth="18" refY="9" refX="0" id="ONLY_ONE_START"><path d="M9,0 L9,18 M15,0 L15,18" fill="none" stroke="gray"/></marker></defs><defs><marker orient="auto" markerHeight="18" markerWidth="18" refY="9" refX="18" id="ONLY_ONE_END"><path d="M3,0 L3,18 M9,0 L9,18" fill="none" stroke="gray"/></marker></defs><defs><marker orient="auto" markerHeight="18" markerWidth="30" refY="9" refX="0" id="ZERO_OR_ONE_START"><circle r="6" cy="9" cx="21" fill="white" stroke="gray"/><path d="M9,0 L9,18" fill="none" stroke="gray"/></marker></defs><defs><marker orient="auto" markerHeight="18" markerWidth="30" refY="9" refX="30" id="ZERO_OR_ONE_END"><circle r="6" cy="9" cx="9" fill="white" stroke="gray"/><path d="M21,0 L21,18" fill="none" stroke="gray"/></marker></defs><defs><marker orient="auto" markerHeight="36" markerWidth="45" refY="18" refX="18" id="ONE_OR_MORE_START"><path d="M0,18 Q 18,0 36,18 Q 18,36 0,18 M42,9 L42,27" fill="none" stroke="gray"/></marker></defs><defs><marker orient="auto" markerHeight="36" markerWidth="45" refY="18" refX="27" id="ONE_OR_MORE_END"><path d="M3,9 L3,27 M9,18 Q27,0 45,18 Q27,36 9,18" fill="none" stroke="gray"/></marker></defs><defs><marker orient="auto" markerHeight="36" markerWidth="57" refY="18" refX="18" id="ZERO_OR_MORE_START"><circle r="6" cy="18" cx="48" fill="white" stroke="gray"/><path d="M0,18 Q18,0 36,18 Q18,36 0,18" fill="none" stroke="gray"/></marker></defs><defs><marker orient="auto" markerHeight="36" markerWidth="57" refY="18" refX="39" id="ZERO_OR_MORE_END"><circle r="6" cy="18" cx="9" fill="white" stroke="gray"/><path d="M21,18 Q39,0 57,18 Q39,36 21,18" fill="none" stroke="gray"/></marker></defs><path style="stroke: gray; fill: none;" marker-start="url(#ZERO_OR_ONE_START)" marker-end="url(#ONLY_ONE_END)" d="M88.348,198.5L88.348,206.833C88.348,215.167,88.348,231.833,88.348,248.5C88.348,265.167,88.348,281.833,88.348,290.167L88.348,298.5" class="er relationshipLine"/><g transform="translate(38.34765625,298.5 )" id="entity-TaskStatus-c8f5f019-427b-5a3e-a9bf-95c5e174e986"><rect height="90" width="100" y="0" x="0" class="er entityBox"/><text style="dominant-baseline: middle; text-anchor: middle; font-size: 12px;" transform="translate(50,12)" y="0" x="0" id="text-entity-TaskStatus-c8f5f019-427b-5a3e-a9bf-95c5e174e986" class="er entityLabel">TaskStatus</text><rect height="22" width="50" y="24" x="0" class="er attributeBoxOdd"/><text style="dominant-baseline: middle; font-size: 10.2px;" transform="translate(5,35)" y="0" x="0" id="text-entity-TaskStatus-c8f5f019-427b-5a3e-a9bf-95c5e174e986-attr-1-type" class="er entityLabel">TODO</text><rect height="22" width="50" y="24" x="50" class="er attributeBoxOdd"/><text style="dominant-baseline: middle; font-size: 10.2px;" transform="translate(55,35)" y="0" x="0" id="text-entity-TaskStatus-c8f5f019-427b-5a3e-a9bf-95c5e174e986-attr-1-name" class="er entityLabel">TODO</text><rect height="22" width="50" y="46" x="0" class="er attributeBoxEven"/><text style="dominant-baseline: middle; font-size: 10.2px;" transform="translate(5,57)" y="0" x="0" id="text-entity-TaskStatus-c8f5f019-427b-5a3e-a9bf-95c5e174e986-attr-2-type" class="er entityLabel">DOING</text><rect height="22" width="50" y="46" x="50" class="er attributeBoxEven"/><text style="dominant-baseline: middle; font-size: 10.2px;" transform="translate(55,57)" y="0" x="0" id="text-entity-TaskStatus-c8f5f019-427b-5a3e-a9bf-95c5e174e986-attr-2-name" class="er entityLabel">DOING</text><rect height="22" width="50" y="68" x="0" class="er attributeBoxOdd"/><text style="dominant-baseline: middle; font-size: 10.2px;" transform="translate(5,79)" y="0" x="0" id="text-entity-TaskStatus-c8f5f019-427b-5a3e-a9bf-95c5e174e986-attr-3-type" class="er entityLabel">DONE</text><rect height="22" width="50" y="68" x="50" class="er attributeBoxOdd"/><text style="dominant-baseline: middle; font-size: 10.2px;" transform="translate(55,79)" y="0" x="0" id="text-entity-TaskStatus-c8f5f019-427b-5a3e-a9bf-95c5e174e986-attr-3-name" class="er entityLabel">DONE</text></g><g transform="translate(20,20 )" id="entity-Task-48d7b74a-e47a-5efe-8103-e90c35d0bbcd"><rect height="178.5" width="136.6953125" y="0" x="0" class="er entityBox"/><text style="dominant-baseline: middle; text-anchor: middle; font-size: 12px;" transform="translate(68.34765625,12)" y="0" x="0" id="text-entity-Task-48d7b74a-e47a-5efe-8103-e90c35d0bbcd" class="er entityLabel">Task</text><rect height="22.5" width="57.34375" y="24" x="0" class="er attributeBoxOdd"/><text style="dominant-baseline: middle; font-size: 10.2px;" transform="translate(5,35.25)" y="0" x="0" id="text-entity-Task-48d7b74a-e47a-5efe-8103-e90c35d0bbcd-attr-1-type" class="er entityLabel">Int</text><rect height="22.5" width="56.8515625" y="24" x="57.34375" class="er attributeBoxOdd"/><text style="dominant-baseline: middle; font-size: 10.2px;" transform="translate(62.34375,35.25)" y="0" x="0" id="text-entity-Task-48d7b74a-e47a-5efe-8103-e90c35d0bbcd-attr-1-name" class="er entityLabel">id</text><rect height="22.5" width="22.5" y="24" x="114.1953125" class="er attributeBoxOdd"/><text style="dominant-baseline: middle; font-size: 10.2px;" transform="translate(119.1953125,35.25)" y="0" x="0" id="text-entity-Task-48d7b74a-e47a-5efe-8103-e90c35d0bbcd-attr-1-comment" class="er entityLabel">🗝️</text><rect height="22" width="57.34375" y="46.5" x="0" class="er attributeBoxEven"/><text style="dominant-baseline: middle; font-size: 10.2px;" transform="translate(5,57.5)" y="0" x="0" id="text-entity-Task-48d7b74a-e47a-5efe-8103-e90c35d0bbcd-attr-2-type" class="er entityLabel">String</text><rect height="22" width="56.8515625" y="46.5" x="57.34375" class="er attributeBoxEven"/><text style="dominant-baseline: middle; font-size: 10.2px;" transform="translate(62.34375,57.5)" y="0" x="0" id="text-entity-Task-48d7b74a-e47a-5efe-8103-e90c35d0bbcd-attr-2-name" class="er entityLabel">content</text><rect height="22" width="22.5" y="46.5" x="114.1953125" class="er attributeBoxEven"/><text style="dominant-baseline: middle; font-size: 10.2px;" transform="translate(119.1953125,57.5)" y="0" x="0" id="text-entity-Task-48d7b74a-e47a-5efe-8103-e90c35d0bbcd-attr-2-comment" class="er entityLabel"/><rect height="22" width="57.34375" y="68.5" x="0" class="er attributeBoxOdd"/><text style="dominant-baseline: middle; font-size: 10.2px;" transform="translate(5,79.5)" y="0" x="0" id="text-entity-Task-48d7b74a-e47a-5efe-8103-e90c35d0bbcd-attr-3-type" class="er entityLabel">String</text><rect height="22" width="56.8515625" y="68.5" x="57.34375" class="er attributeBoxOdd"/><text style="dominant-baseline: middle; font-size: 10.2px;" transform="translate(62.34375,79.5)" y="0" x="0" id="text-entity-Task-48d7b74a-e47a-5efe-8103-e90c35d0bbcd-attr-3-name" class="er entityLabel">userId</text><rect height="22" width="22.5" y="68.5" x="114.1953125" class="er attributeBoxOdd"/><text style="dominant-baseline: middle; font-size: 10.2px;" transform="translate(119.1953125,79.5)" y="0" x="0" id="text-entity-Task-48d7b74a-e47a-5efe-8103-e90c35d0bbcd-attr-3-comment" class="er entityLabel"/><rect height="22" width="57.34375" y="90.5" x="0" class="er attributeBoxEven"/><text style="dominant-baseline: middle; font-size: 10.2px;" transform="translate(5,101.5)" y="0" x="0" id="text-entity-Task-48d7b74a-e47a-5efe-8103-e90c35d0bbcd-attr-4-type" class="er entityLabel">String</text><rect height="22" width="56.8515625" y="90.5" x="57.34375" class="er attributeBoxEven"/><text style="dominant-baseline: middle; font-size: 10.2px;" transform="translate(62.34375,101.5)" y="0" x="0" id="text-entity-Task-48d7b74a-e47a-5efe-8103-e90c35d0bbcd-attr-4-name" class="er entityLabel">channelId</text><rect height="22" width="22.5" y="90.5" x="114.1953125" class="er attributeBoxEven"/><text style="dominant-baseline: middle; font-size: 10.2px;" transform="translate(119.1953125,101.5)" y="0" x="0" id="text-entity-Task-48d7b74a-e47a-5efe-8103-e90c35d0bbcd-attr-4-comment" class="er entityLabel"/><rect height="22" width="57.34375" y="112.5" x="0" class="er attributeBoxOdd"/><text style="dominant-baseline: middle; font-size: 10.2px;" transform="translate(5,123.5)" y="0" x="0" id="text-entity-Task-48d7b74a-e47a-5efe-8103-e90c35d0bbcd-attr-5-type" class="er entityLabel">String</text><rect height="22" width="56.8515625" y="112.5" x="57.34375" class="er attributeBoxOdd"/><text style="dominant-baseline: middle; font-size: 10.2px;" transform="translate(62.34375,123.5)" y="0" x="0" id="text-entity-Task-48d7b74a-e47a-5efe-8103-e90c35d0bbcd-attr-5-name" class="er entityLabel">messageId</text><rect height="22" width="22.5" y="112.5" x="114.1953125" class="er attributeBoxOdd"/><text style="dominant-baseline: middle; font-size: 10.2px;" transform="translate(119.1953125,123.5)" y="0" x="0" id="text-entity-Task-48d7b74a-e47a-5efe-8103-e90c35d0bbcd-attr-5-comment" class="er entityLabel"/><rect height="22" width="57.34375" y="134.5" x="0" class="er attributeBoxEven"/><text style="dominant-baseline: middle; font-size: 10.2px;" transform="translate(5,145.5)" y="0" x="0" id="text-entity-Task-48d7b74a-e47a-5efe-8103-e90c35d0bbcd-attr-6-type" class="er entityLabel">TaskStatus</text><rect height="22" width="56.8515625" y="134.5" x="57.34375" class="er attributeBoxEven"/><text style="dominant-baseline: middle; font-size: 10.2px;" transform="translate(62.34375,145.5)" y="0" x="0" id="text-entity-Task-48d7b74a-e47a-5efe-8103-e90c35d0bbcd-attr-6-name" class="er entityLabel">status</text><rect height="22" width="22.5" y="134.5" x="114.1953125" class="er attributeBoxEven"/><text style="dominant-baseline: middle; font-size: 10.2px;" transform="translate(119.1953125,145.5)" y="0" x="0" id="text-entity-Task-48d7b74a-e47a-5efe-8103-e90c35d0bbcd-attr-6-comment" class="er entityLabel"/><rect height="22" width="57.34375" y="156.5" x="0" class="er attributeBoxOdd"/><text style="dominant-baseline: middle; font-size: 10.2px;" transform="translate(5,167.5)" y="0" x="0" id="text-entity-Task-48d7b74a-e47a-5efe-8103-e90c35d0bbcd-attr-7-type" class="er entityLabel">DateTime</text><rect height="22" width="56.8515625" y="156.5" x="57.34375" class="er attributeBoxOdd"/><text style="dominant-baseline: middle; font-size: 10.2px;" transform="translate(62.34375,167.5)" y="0" x="0" id="text-entity-Task-48d7b74a-e47a-5efe-8103-e90c35d0bbcd-attr-7-name" class="er entityLabel">createdAt</text><rect height="22" width="22.5" y="156.5" x="114.1953125" class="er attributeBoxOdd"/><text style="dominant-baseline: middle; font-size: 10.2px;" transform="translate(119.1953125,167.5)" y="0" x="0" id="text-entity-Task-48d7b74a-e47a-5efe-8103-e90c35d0bbcd-attr-7-comment" class="er entityLabel"/></g><rect height="14" width="66.1171875" y="241.5" x="55.289405822753906" class="er relationshipLabelBox"/><text style="text-anchor: middle; dominant-baseline: middle; font-size: 12px;" y="248.5" x="88.3479995727539" id="rel1" class="er relationshipLabel">enum:status</text></svg>